<svg xmlns="http://www.w3.org/2000/svg" viewBox="0 0 319.51 127.72"><defs><style>.cls-1{fill:#feb678;}.cls-2{fill:#ffa458;}.cls-3{fill:#ff9238;}.cls-4{fill:#ff7900;}</style></defs><g id="Layer_2" data-name="Layer 2"><g id="Layer_1-2" data-name="Layer 1"><path class="cls-1" d="M269.57,2a112.61,112.61,0,0,1,20.22,2.66,41.83,41.83,0,0,1,13.85,5.8,27.36,27.36,0,0,1,8.7,9.42,46.8,46.8,0,0,1,4.75,13.53,113.76,113.76,0,0,1,2,18.21q.4,10.32.4,23.2,0,16.28-2.33,26.34t-8,15.87q-5.64,5.8-15.06,8a113.41,113.41,0,0,1-23.61,2.33,114.4,114.4,0,0,1-24.32-1.69A37,37,0,0,1,229,117.74q-6.93-5.88-10.64-16.28t-4.67-26.82a162.21,162.21,0,0,1,1.13-32.3q2.09-13.94,8.54-23.2A37.29,37.29,0,0,1,241.05,5.52Q252.33,1.17,269.57,2ZM257.65,88.33A5.91,5.91,0,0,0,261.11,94a14.57,14.57,0,0,0,7.65,1.53,16.4,16.4,0,0,0,7.74-2.41,7.54,7.54,0,0,0,3.86-6c.32-3.54.57-6.87.73-10s.21-6.23.16-9.35-.19-6.44-.4-10-.6-7.57-1.13-12.08a7,7,0,0,0-4-5.8A15.64,15.64,0,0,0,268,38.23a16.82,16.82,0,0,0-7.66,2.09,6.75,6.75,0,0,0-3.78,5.48q-.33,5.48-.24,12.33t.4,13.13c.21,4.19.43,7.86.64,11S257.65,87.48,257.65,88.33Z"/><path class="cls-2" d="M180.46,104.61a17.39,17.39,0,0,0-.16,4.43c.1,2,.16,4,.16,6.12a24.58,24.58,0,0,1-.65,5.8,4.13,4.13,0,0,1-2.57,3.3,31.66,31.66,0,0,1-6.45,1,86.43,86.43,0,0,1-9.34.32,75.56,75.56,0,0,1-8.94-.64q-4.11-.57-5.24-2c-.54-.53-1-3.16-1.37-7.89s-.67-10.66-.89-17.8-.4-15-.56-23.61-.24-17-.24-25.29.08-15.92.24-23,.4-12.49.73-16.35q.31-3.23,4.51-5.08a42.27,42.27,0,0,1,10.55-2.82,110.14,110.14,0,0,1,14-1.13q7.65-.15,14.82.25t13,1.12a61.27,61.27,0,0,1,8.62,1.53,26.2,26.2,0,0,1,11,6,28.73,28.73,0,0,1,6.69,9.58A44.08,44.08,0,0,1,231.69,31a108.27,108.27,0,0,1,.65,14.66q-.17,7.72-.08,13.85t-.33,11a60.11,60.11,0,0,1-1.29,8.7,20,20,0,0,1-3,6.85,44,44,0,0,1-3.54,4.43,28.27,28.27,0,0,1-2.42,2.33,6.11,6.11,0,0,0-1.29,1.37,2.76,2.76,0,0,0-.16,1.7,6.75,6.75,0,0,0,1.53,2.9q1.53,2.09,3.63,4.83t4.35,5.88q2.25,3.14,4,6a22.74,22.74,0,0,1,2.33,5c.43,1.45.27,2.44-.48,3q-1.78,1.29-7.09,1.93a94.57,94.57,0,0,1-11.36.64q-6,0-11.44-.4a29.74,29.74,0,0,1-7.49-1.21c-.32-.1-.91-.86-1.77-2.25s-1.85-3.06-3-5-2.31-3.92-3.55-6a40.09,40.09,0,0,0-3.7-5.23,10,10,0,0,0-3.39-2.82C181.77,102.73,181,103.21,180.46,104.61Zm-2.1-33.52a5.5,5.5,0,0,0,3,5.08A12,12,0,0,0,188,77.7a15.51,15.51,0,0,0,6.85-1.93,6.36,6.36,0,0,0,3.54-5.16q.48-4.67.89-8.7c.26-2.68.43-5.42.48-8.22s0-5.74-.16-8.86-.4-6.65-.73-10.63A6.29,6.29,0,0,0,195.44,29a13.67,13.67,0,0,0-6.68-1.69A14.13,14.13,0,0,0,182,29a6,6,0,0,0-3.46,4.76q-.5,4.83-.57,10.87c-.05,4,0,7.87.08,11.52s.19,6.88.24,9.67S178.36,70.34,178.36,71.09Z"/><path class="cls-3" d="M75.25,5.27A23.42,23.42,0,0,1,83,2.93a52.48,52.48,0,0,1,9.58-.56,48.63,48.63,0,0,1,8.46,1q3.7.81,4.51,2.1a14.23,14.23,0,0,1,1.93,7,76.27,76.27,0,0,1-.16,8.62c-.21,3-.43,6-.64,9a29.4,29.4,0,0,0,.48,8.3,12.81,12.81,0,0,0,3.3,6.36Q113,47.32,118.11,48q2.56.33,4.11-2.5a22.89,22.89,0,0,0,2.25-7.25,84.78,84.78,0,0,0,1-9.82q.24-5.4.4-10.23t.56-8.38c.27-2.36.73-3.87,1.37-4.51,1-1,2.9-1.69,5.8-2.18a63.14,63.14,0,0,1,9.35-.8c3.33-.06,6.5,0,9.5.24a22.65,22.65,0,0,1,6.45,1.13c.64.21,1.13,1.69,1.45,4.43s.56,6.34.72,10.79.25,9.56.25,15.31V52q-.33,23.2-3.47,37.62t-9.1,22.64a30.55,30.55,0,0,1-14.58,11.27,64.68,64.68,0,0,1-19.74,3.39,66.47,66.47,0,0,1-18.28-1.86,51.15,51.15,0,0,1-15.63-6.6,34.57,34.57,0,0,1-11-11.2,29.8,29.8,0,0,1-4.11-15.79,4.94,4.94,0,0,1,1.86-3.86A14.74,14.74,0,0,1,72,84.94a28.23,28.23,0,0,1,6.36-1.45A47.26,47.26,0,0,1,85,83.16a26.65,26.65,0,0,1,5.48.65,7,7,0,0,1,3.14,1.37,5.84,5.84,0,0,1,1.13,3,21.06,21.06,0,0,0,.56,3.3,5.47,5.47,0,0,0,1.77,2.82q1.36,1.22,4.76,1.53a78.82,78.82,0,0,0,8.7-.4c2.36-.27,3.65-.83,3.86-1.69.11-.32.3-1.16.57-2.5s.5-2.9.72-4.67.4-3.63.56-5.56a35.65,35.65,0,0,0,.09-5.32,13.23,13.23,0,0,0-.73-3.86,1.67,1.67,0,0,0-1.85-1.29q-12.57,2.42-21.35.48A32.41,32.41,0,0,1,78,64.23a30.39,30.39,0,0,1-8.46-11.68A48.11,48.11,0,0,1,66.07,38.3a82.4,82.4,0,0,1-.4-9.67,45.82,45.82,0,0,1,1-9.18,28.37,28.37,0,0,1,3.06-8A21,21,0,0,1,75.25,5.27Z"/><path class="cls-4" d="M4.94,7.74A18.69,18.69,0,0,1,11.06,5,72,72,0,0,1,21.13,2.91Q26.85,2.1,33.62,1.7a113.1,113.1,0,0,1,13.53,0A97.18,97.18,0,0,1,60,3.31a44.76,44.76,0,0,1,10.8,3.47A20.73,20.73,0,0,1,81.39,18.13a50,50,0,0,1,3.46,17q.33,10-2,16.44A37.07,37.07,0,0,1,77.52,61.8,22.52,22.52,0,0,1,72,67.11a13.79,13.79,0,0,0-2.49,1.69c.1,1.19.94,2.13,2.49,2.82a19.25,19.25,0,0,1,5.08,3.63A21.69,21.69,0,0,1,82,83.06q2.1,5.23,1.94,15.39a75.14,75.14,0,0,1-.57,9.58,31.92,31.92,0,0,1-2,8,18,18,0,0,1-3.87,6,13.13,13.13,0,0,1-6.28,3.38A63.88,63.88,0,0,1,60.93,127q-5.73.5-12.25.65t-13.45.08q-6.93-.07-13.85-.08-8.55,0-12.81-2.74a14.77,14.77,0,0,1-6.05-7.81A40.29,40.29,0,0,1,.59,104.81q-.16-7.17-.32-16Q.1,81.21,0,72.51t.08-17.4c.1-5.8.27-11.41.48-16.84S1.1,28,1.48,23.69A93.87,93.87,0,0,1,2.93,13C3.52,10.13,4.19,8.39,4.94,7.74ZM40.39,31.91c0,.32-.08,1.1-.25,2.34s-.29,2.65-.4,4.27-.13,3.3-.08,5.07a21.8,21.8,0,0,0,.56,4.59,3.14,3.14,0,0,0,1.7,2,6.46,6.46,0,0,0,3.06.72,8.77,8.77,0,0,0,3.3-.64,4.67,4.67,0,0,0,2.42-2.1,16.93,16.93,0,0,0,3-8.21,10,10,0,0,0-3.14-7.58,10.29,10.29,0,0,0-3.07-2.09,9.4,9.4,0,0,0-3.38-.89,5,5,0,0,0-2.66.49A2.06,2.06,0,0,0,40.39,31.91Zm0,66.86a2.27,2.27,0,0,0,1,2.1,4.17,4.17,0,0,0,2.66.48,12,12,0,0,0,3.38-.89,8.2,8.2,0,0,0,3.07-2.17,9.94,9.94,0,0,0,3.14-7.57,16.93,16.93,0,0,0-3-8.22,4.67,4.67,0,0,0-2.42-2.1,9,9,0,0,0-3.3-.64,6.46,6.46,0,0,0-3.06.72,3.14,3.14,0,0,0-1.7,2,21.8,21.8,0,0,0-.56,4.59c0,1.77,0,3.46.08,5.08s.24,3,.4,4.26S40.39,98.45,40.39,98.77Z"/></g></g></svg>